<svg id="Layer_1" data-name="Layer 1" xmlns="http://www.w3.org/2000/svg" viewBox="0 0 601.12 216.93"><defs><style>.cls-1{fill:#fff;}</style></defs><title>logo</title><path class="cls-1" d="M716.91,317.61h12.87v72.94H716.91Z" transform="translate(-296.49 -290.72)"/><path class="cls-1" d="M546.48,317.79H574c22.62,0,39,15.25,39,36.42,0,20.85-16.7,36.52-39,36.52h-27.5Zm13,11.82V378.9h14.63c14.11,0,25.11-10.27,25.11-24.49s-10.48-24.8-25.11-24.8Z" transform="translate(-296.49 -290.72)"/><path class="cls-1" d="M636.62,317.79H660c19.41,0,29.16,10.68,29.16,25.94,0,10.06-4.15,18-13.28,22.3l18.68,24.7h-15L664,369.25a64.9,64.9,0,0,1-6.54.31h-8v21.17H636.62Zm12.86,11.82v28.54H659c12,0,16.19-6.43,16.19-14.42s-4.05-14.12-16.19-14.12Z" transform="translate(-296.49 -290.72)"/><path class="cls-1" d="M610.53,408.28l-25.77,55.36v18.62h-13V463.53L546,408.28h13.84L578.43,450,597,408.28Z" transform="translate(-296.49 -290.72)"/><path class="cls-1" d="M660.22,407.08c22.62,0,39,15.87,39,37.66,0,21.48-16.71,37.67-39,37.67s-38.91-16.08-38.91-37.67C621.31,423.68,638.33,407.08,660.22,407.08Zm.11,64c14.11,0,25.11-11.31,25.11-26.15S675,418.7,660.33,418.7c-14.43,0-25.11,11.31-25.11,26.25C635.22,459.58,646.22,471.1,660.33,471.1Z" transform="translate(-296.49 -290.72)"/><path class="cls-1" d="M721.93,408.32h12.86v42.75c0,13.91,6.33,19.72,17.33,19.72S769.87,465,769.87,451V408.32h12.86v42.75c0,21.79-12.35,31.55-30.61,31.55s-30.19-9.76-30.19-31.55Z" transform="translate(-296.49 -290.72)"/><rect class="cls-1" x="540.95" y="27.07" width="60.18" height="11.83"/><rect class="cls-1" x="540.95" y="88.01" width="60.18" height="11.83"/><rect class="cls-1" x="540.95" y="57.77" width="60.18" height="11.83"/><path class="cls-1" d="M513.42,399.18A108.47,108.47,0,1,1,405,290.72,108.46,108.46,0,0,1,513.42,399.18ZM382.66,390.3h-13.8l33.83,67.88H407l33.83-67.88H427.38L405,434.11Zm59.09-12.76c0-21.3-15.74-37.35-36.61-37.35-21.42,0-37,15.71-37,37.35v3.69h14v-3.69c0-13.75,9.45-23.35,23-23.35,13.1,0,22.61,9.82,22.61,23.35v3.69h14Z" transform="translate(-296.49 -290.72)"/><path class="cls-1" d="M750.36,317.81h72l-33.75,73.94h-4.5Zm36.13,49.75,17.06-37.87H769.49Z" transform="translate(-296.49 -290.72)"/></svg>