<svg id="Layer_1" data-name="Layer 1" xmlns="http://www.w3.org/2000/svg" viewBox="0 0 622.71 75.54"><title>logo_navebar</title><path d="M231.29,115.05h12.87V188H231.29Z" transform="translate(-57.86 -113.98)"/><path d="M57.86,115.23h27.5c22.62,0,39,15.25,39,36.42,0,20.85-16.7,36.52-39,36.52H57.86Zm13,11.82v49.29H85.46c14.12,0,25.11-10.27,25.11-24.49s-10.48-24.8-25.11-24.8Z" transform="translate(-57.86 -113.98)"/><path d="M150,115.23h23.35c19.4,0,29.15,10.68,29.15,25.94,0,10.06-4.15,18.05-13.28,22.3l18.68,24.7H192.85l-15.46-21.48a64.84,64.84,0,0,1-6.53.31h-8v21.17H150Zm12.87,11.82v28.54h9.54c12,0,16.19-6.44,16.19-14.42s-4-14.12-16.19-14.12Z" transform="translate(-57.86 -113.98)"/><path d="M300.86,165l22.41-49.8h13.49L302.94,189.1h-4.36l-33.83-73.87h13.8Z" transform="translate(-57.86 -113.98)"/><path d="M509,115.23l-26.77,44.09v28.85h-13V159.22l-26.77-44h14.84l18.57,32.26,18.58-32.26Z" transform="translate(-57.86 -113.98)"/><path d="M558.07,114c22.62,0,39,15.88,39,37.67,0,21.47-16.7,37.66-39,37.66s-38.91-16.08-38.91-37.66C519.16,130.58,536.18,114,558.07,114Zm.1,64c14.12,0,25.11-11.31,25.11-26.15S572.8,125.6,558.17,125.6c-14.42,0-25.11,11.31-25.11,26.25C533.06,166.48,544.06,178,558.17,178Z" transform="translate(-57.86 -113.98)"/><path d="M619.78,115.23h12.86V158c0,13.91,6.33,19.72,17.33,19.72s17.74-5.81,17.74-19.82V115.23h12.87V158c0,21.79-12.35,31.55-30.61,31.55s-30.19-9.76-30.19-31.55Z" transform="translate(-57.86 -113.98)"/><rect x="293.96" y="1.25" width="60.18" height="11.83"/><rect x="215.45" y="1.25" width="52.12" height="11.83"/><rect x="293.96" y="62.19" width="60.18" height="11.83"/><rect x="293.96" y="31.94" width="60.18" height="11.83"/></svg>